<svg xmlns="http://www.w3.org/2000/svg" viewBox="0 0 32 32" fill="none">
  <path d="M16 3C8.82 3 3 8.72 3 15.78c0 2.4.68 4.66 1.85 6.59L3 29l6.9-1.8a13.2 13.2 0 0 0 6.1 1.5c7.18 0 13-5.72 13-12.78S23.18 3 16 3Z" fill="#25D366"/>
  <path d="M22.2 18.66c-.34-.17-2.02-.98-2.33-1.09-.3-.12-.52-.17-.74.17-.22.33-.85 1.09-1.05 1.31-.2.22-.4.25-.74.08-.34-.17-1.45-.52-2.76-1.67-1.02-.9-1.72-2-1.92-2.34-.2-.33-.02-.52.15-.69.16-.16.34-.42.5-.63.17-.22.22-.37.34-.62.11-.25.05-.47-.03-.64-.08-.17-.74-1.76-1.01-2.42-.27-.64-.55-.55-.74-.56h-.63c-.22 0-.58.08-.88.42-.3.33-1.15 1.12-1.15 2.73 0 1.61 1.18 3.16 1.34 3.38.17.22 2.32 3.68 5.73 5.01.81.35 1.45.56 1.95.71.82.26 1.57.22 2.16.14.66-.1 2.02-.82 2.3-1.61.29-.79.29-1.46.2-1.61-.08-.14-.3-.22-.64-.39Z" fill="#fff"/>
</svg>
